<svg id="Layer_1" data-name="Layer 1" xmlns="http://www.w3.org/2000/svg" viewBox="0 0 50 50"><defs><style>.cls-1{fill:#7f2519;}</style></defs><title>behance-icon</title><path class="cls-1" d="M18.64,27.52a7.24,7.24,0,0,0-2-.32c-1.61,0-3.21,0-4.82,0-.23,0-.29.08-.29.33,0,1.06,0,2.11,0,3.16s0,2.11,0,3.16c0,.29.08.36.33.35h1.92c1.29,0,2.57,0,3.86-.09a2.64,2.64,0,0,0,2-1.06,4.26,4.26,0,0,0,.69-3.19A2.49,2.49,0,0,0,18.64,27.52Z"/><path class="cls-1" d="M35.57,22.69c-2.45,0-3.56,1.88-3.76,4H39.3A3.7,3.7,0,0,0,35.57,22.69Z"/><path class="cls-1" d="M46.24,0H3.76A3.77,3.77,0,0,0,0,3.76V46.24A3.77,3.77,0,0,0,3.76,50H46.24A3.77,3.77,0,0,0,50,46.24V3.76A3.77,3.77,0,0,0,46.24,0ZM30.83,13.63h9.42c0,.82,0,1.61,0,2.41,0,.06-.1.13-.17.17s-.11,0-.17,0H30.83ZM24.35,35A6.52,6.52,0,0,1,21.27,38a11.52,11.52,0,0,1-4.74.76c-3.33,0-6.65,0-10,0l-.39,0V12.5l.39,0H17.28a9.1,9.1,0,0,1,3.87.73,5.52,5.52,0,0,1,3.13,3.54A7.81,7.81,0,0,1,24,22.39a4.48,4.48,0,0,1-1.79,2l-.43.29c.34.19.65.34.94.52a5.85,5.85,0,0,1,2.59,4.63A8.55,8.55,0,0,1,24.35,35Zm19.57-5.1-.24,0h-12c0,.36.05.69.1,1a3.87,3.87,0,0,0,3.54,3.6,4.07,4.07,0,0,0,2.3-.35A2.94,2.94,0,0,0,39,32.85a.64.64,0,0,1,.66-.43c1.23,0,2.46,0,3.68,0h.39a7.15,7.15,0,0,1-.17.81,7.74,7.74,0,0,1-2.39,3.51,7.91,7.91,0,0,1-5.37,1.8,8.5,8.5,0,0,1-5.92-2.27,7.39,7.39,0,0,1-2.25-4.15,16.15,16.15,0,0,1,.14-7.35,8.13,8.13,0,0,1,2.75-4.41,7.86,7.86,0,0,1,5.46-1.71,8.15,8.15,0,0,1,4.21,1.23,7.57,7.57,0,0,1,2.45,2.72,10.63,10.63,0,0,1,1.27,4.65,1.8,1.8,0,0,0,.06.32Z"/><path class="cls-1" d="M11.86,22.87c.83,0,1.65,0,2.47,0,.54,0,1.07,0,1.6,0a17.73,17.73,0,0,0,2.06-.2,2.23,2.23,0,0,0,1.59-1.05A3.38,3.38,0,0,0,20,19.42a2,2,0,0,0-1.51-2,10.3,10.3,0,0,0-2-.31c-1.53-.05-3.07,0-4.61,0-.23,0-.28.09-.28.33,0,1.72,0,3.43,0,5.14C11.57,22.79,11.64,22.87,11.86,22.87Z"/></svg>