<svg id="Layer_1" data-name="Layer 1" xmlns="http://www.w3.org/2000/svg" viewBox="0 0 50 50"><defs><style>.cls-1{fill:#7f2519;}</style></defs><title>github-icon</title><path class="cls-1" d="M0,3.76V46.24A3.77,3.77,0,0,0,3.76,50H18.49a1.39,1.39,0,0,0,1-1.55c0-1.4,0-2.79,0-4.19v-.48l-2.22.12a9.26,9.26,0,0,1-3.66-.43,5.55,5.55,0,0,1-3.24-2.95,10.44,10.44,0,0,0-1.81-3c-.41-.41-.9-.74-1.35-1.12a5.83,5.83,0,0,1-.75-.65c-.3-.34-.18-.64.26-.75a3.89,3.89,0,0,1,3.13.7,10.07,10.07,0,0,1,2.29,2.58,5.38,5.38,0,0,0,6.38,2c.12,0,.22-.09.34-.11a1.05,1.05,0,0,0,.83-.9,7.85,7.85,0,0,1,.57-1.53,15.82,15.82,0,0,1,.87-1.38c-.65-.13-1.31-.27-2-.39a14.71,14.71,0,0,1-5-1.77,9.88,9.88,0,0,1-4.33-5.29A16.38,16.38,0,0,1,9,21.78a10,10,0,0,1,2.28-5.52,1.18,1.18,0,0,0,.23-1.18,9.7,9.7,0,0,1,.32-6c.18-.49.35-.6.88-.55a11.3,11.3,0,0,1,4.12,1.31c.73.38,1.44.8,2.16,1.2a1.53,1.53,0,0,0,1.15.15,26.69,26.69,0,0,1,9-.55,24.58,24.58,0,0,1,3,.51A2.44,2.44,0,0,0,34,10.83a36.14,36.14,0,0,1,3.34-1.7,12.66,12.66,0,0,1,2.47-.56.79.79,0,0,1,.89.53,8.91,8.91,0,0,1,.46,5.44,2.62,2.62,0,0,0,.41,2.28,15.19,15.19,0,0,1,1.19,2.07,11.13,11.13,0,0,1,.9,4.34,14.33,14.33,0,0,1-2.21,8.08,9.08,9.08,0,0,1-3.82,3.28,22.79,22.79,0,0,1-5.93,1.67l-.24.05-.05,0c.31.49.65,1,.92,1.48a6.24,6.24,0,0,1,.7,2.84c0,2.45,0,4.9,0,7.34,0,.19,0,.38,0,.56A1.45,1.45,0,0,0,34,50H46.24A3.77,3.77,0,0,0,50,46.24V3.76A3.77,3.77,0,0,0,46.24,0H3.76A3.77,3.77,0,0,0,0,3.76Z"/></svg>