<svg id="Layer_1" data-name="Layer 1" xmlns="http://www.w3.org/2000/svg" viewBox="0 0 50 50"><defs><style>.cls-1{fill:#7f2519;}</style></defs><title>linkedin-icon</title><path class="cls-1" d="M46.24,0H3.76A3.77,3.77,0,0,0,0,3.76V46.24A3.77,3.77,0,0,0,3.76,50H46.24A3.77,3.77,0,0,0,50,46.24V3.76A3.77,3.77,0,0,0,46.24,0ZM15.45,38.83H8.82V21.74c0-.23,0-.24.32-.24h6.29c.33,0,.33,0,.33.26V38.59C15.76,38.83,15.76,38.83,15.45,38.83ZM12.29,19.19a4,4,0,1,1,4.05-4A3.94,3.94,0,0,1,12.29,19.19ZM41.66,38.57v.26H35c-.3,0-.3,0-.3-.23v-9a4.71,4.71,0,0,0-.5-2.28,2.93,2.93,0,0,0-2.52-1.43,6.68,6.68,0,0,0-2,.14,3,3,0,0,0-2.23,1.7A4.24,4.24,0,0,0,27,29.47q0,4.55,0,9.09c0,.31,0,.27-.34.27h-6.3c-.3,0-.3,0-.3-.23V21.74c0-.23,0-.24.31-.24h6c.31,0,.31,0,.31.26V23.7a1.1,1.1,0,0,0,0,.18h.05l.3-.36a6.29,6.29,0,0,1,2.34-1.66,9.8,9.8,0,0,1,3.68-.76,13.67,13.67,0,0,1,3.89.43,6,6,0,0,1,3.27,2.09,6.38,6.38,0,0,1,1.13,2.6A10.75,10.75,0,0,1,41.61,28c0,1.35,0,2.69,0,4C41.67,34.2,41.66,36.39,41.66,38.57Z"/></svg>